<?xml version="1.0" encoding="UTF-8"?>
<svg version="1.1" viewBox="0 0 800 800" width="35.93" height="32" xmlns="http://www.w3.org/2000/svg">
<path transform="translate(375,414)" d="m0 0h7l36 12 9 4 8 10 14 21 23 34 11 16 10 14 7 7 8 4h8l6-4 7-7 11-16 14-20 22-33 8-11 5-4h8l36 10 8-1 41-18 17-7 6 1 5 5 12 36 23 71 16 50 17 53 1 10-3 5-10 6-31 15-56 26-11 5h-23l-115-4-16-1-31-12-65-26-37-15-35-14-9 1-17 8-49 21-27 12-8 1-6-3-3-6 1-8 16-47 12-36 17-50 16-48 11-31 4-5 66-29z" fill="#0A7CC3"/>
<path transform="translate(496,179)" d="m0 0h30l19 4 18 7 16 9 14 11 12 12v2h2l12 18 6 13 5 16 2 11v29l-3 16-7 19-11 21-10 18-12 21-9 16-15 24-13 20-9 14-10 15-8 11-6 5-2 1h-10l-5-3-7-8-14-21-11-17-13-20-14-22-15-27-13-24-14-27-6-18-3-17v-21l4-20 5-15 10-18 10-13 15-15 14-10 17-9 15-5zm9 71-13 4-9 5-10 9-6 8-4 9-2 9v15l4 13 4 8 8 9 11 7 10 4 5 1h19l13-4 10-6 9-8 6-10 4-11 1-5v-13l-3-12-7-12-10-10-16-8-8-2z" fill="#FC8A23"/>
<path transform="translate(385,431)" d="m0 0 9 2 20 7h6l5-3 3 2 2 3 1-3 4 1 14 21 23 34 11 16 8 11 3 7 8 6 2 2 7 1 2 2v122l-1 1 1 4-1 1 1 4h-3l-5 3-4 4 3 1 1 3-10-3-27-11-23-9-16-6-41-17-26-10-7-3-1-9 1-2 1-10 5-28 5-27 7-39 4-20 3-17 6-37 1-3z" fill="#0E87D1"/>
<path transform="translate(698,440)" d="m0 0 2 1 5 17 5 14 5 17 5 16 6 17 3 9 7 22 18 56 11 35-2 4-13 5-16 8-25 12-28 13-5 2-4-20-6-41-6-35-10-61-3-21-5-31-1-13 3-3 10-4 18-8 14-6z" fill="#118EDA"/>
<path transform="translate(371,430)" d="m0 0h2l-5 29-16 82-12 64-4 17-11 5-76 33-6 2 53-159 14-43 5-5 25-11 29-13z" fill="#2AB3F6"/>
<path transform="translate(364,174)" d="m0 0h7v5l-9 10-16 16-7 8-15 16-9 11-5 5 1 4 4 5v8l-2 4 1 5 45 45 13 12 8 10 6 16 8 29 1 6-7-3-10-8-13-12-12-12-8-7-15-15-8-7-17-17-8-7-5-5-5 2-4 2h-6l-10-6-4 2-9 11-13 16-22 28-6 8-3 2-7-1v-8l6-16 9-19 10-18 11-18 10-15 1-2-6-2-4-4-1-5 3-5 11-13 13-14 4-2 7 1 6 5 4-1 12-11 14-11 14-10 16-9 15-7z" fill="#506067"/>
<path transform="translate(656,174)" d="m0 0 10 2 25 12 12 8 12 9 13 11 10 9h3l6-5 6-1 6 4 12 13 7 8 5 7v6l-8 5h-3l13 19 12 19 14 27 8 19 2 6v7l-1 1h-6l-7-7-10-13-11-14-13-16-9-11-5-6-5 1-12 6-6-1-6-4-4 2-69 69-8 7-15 15-8 7-4 1 2-10 12-36 5-10 9-10 23-23 16-15 9-10 11-11-1-4-3-6 1-6 6-7-1-5-12-14-11-12-9-10-15-16-5-5v-2h-2l-3-5 1-4z" fill="#506167"/>
<path transform="translate(496,179)" d="m0 0h30l19 4 18 7 16 9 14 11 12 12v2h2l12 18 6 13 5 16 2 11v29l-3 16-7 19-11 21-10 18-12 21-9 16-15 24-13 20-9 14-10 15-8 11-6 5-2 1h-10l-5-3-7-8-14-21-11-17-13-20-14-22-15-27-13-24-14-27-6-18-3-17v-21l4-20 5-15 10-18 10-13 15-15 14-10 17-9 15-5zm6 12-17 3-17 6-13 7-10 8-10 9-10 12-10 17-5 12-4 16-1 7v21l4 20 7 16 16 31 10 18 14 24 13 20 12 19 24 36 3 4h7l12-17 17-26 12-19 8-13 12-20 15-26 10-18 10-19 6-18 2-11 1-19-2-16-5-16-8-16-6-9-9-10-10-9-17-11-17-7-14-4-15-2z" fill="#ED760E"/>
<path transform="translate(385,431)" d="m0 0 9 2 20 7h6l5-3v2h-2l1 5-3 3h-4l-1 4-3 2-5-4 1 3h-2v2l-5-2v-3l-4 5 5 5 3 5v3l1 2-6 4-4 4 1 5-6 7h-3l-6 4 4 6 4 4 2-1 1 3-2 4 4 2-2 4-3 4 2 2 1-1 3-4 4-6-3-3 1-4 8-7 3 4-1 4-4 3 1 4-7 7 1 3 8-6 3 2 4-4 5 2-6 7-1 2 3 3h-4l-3 1 2 3-4 3h-3l-7 3v-4l5-4 3-3-4-1h-2l-3 5-4 4-2 4h-4l1 3v1l5-4 3 1-3 4 1 2h-2l-2 4-6 2-7 3-2 2v-2l-6 1-1 5h3l-1 5 5-3 9-6 3 2h3l-2 4-3 3 2 4v2l6-2 5-5 6-5 8-2-2 5 3-1 2 4-5 3 4 2 3-1 3-3 1 2h-2l2 4-7 6 2 2-6 4-4-4 3-4-4-3-4 2 2 4-5 3-2-2 1-2-5 1-4-2h-3l-3 3v-4h-2v2l-6 2 5 2-2 3 3 2 3-3 6 2 4-2 2 2-3 4-2 4-6 5-4 2-2-2-4 2-3 1-1 4-2 3 5-2 1 3-2 6 4-1 2 3-5 5 1 2h3v2h3l5-4 3 5 6-6 5-3 3 3-4 2-5 5-1 4 3 1v3l4-1v-3-2l5 2 5 7 7-6 3-3 2 3v2l3 3 2-3-4-1v-2l3-1v-4l-2-2v-3l-2-1 4-3-1-3-4-3v-2h2l-3-4 2-4 4 3 3 1 3-2 2 6 4 2 3 2 4 1 2-1 3 3 3-1 1-3 5-2h3 3v3l-2 4-3 3h-4v2l3 3v3l-3 1-2-2h-3l1 4-4-2-1-3-3 3 1 4h-3l-3-5v-3h-2-3l-2-1 2 4v2l1 4-3 3 1 2 3-2 3 4-2 4-4 4 4 2 5-2h2l-1-4 5-4-2 6 3-1 1 5 2 3-2 2 7 3 4-2-3-4v-3l1-3 3 3 3 10-2 3-9-2-28-11-36-15-26-10-7-3-1-9 1-2 1-10 5-28 5-27 7-39 4-20 3-17 6-37 1-3zm5 78m-2 1v3l2-3zm-20 55-3 2-1 4v3l3 3 4-1 2-7h-2v-2h-2zm58 47-3 3 7 3v-3l-2-3zm-18-155 4 2-4 4h-2zm-15 36m-1 1 3 2 2-1 1 3-5 4v-4l-4-1zm-4 5m20 8m-1 1m-1 1m-20 69 4 2-4 4-4-3z" fill="#0F89D4"/>
<path transform="translate(475,569)" d="m0 0h4l2 3-2 5-1 2 4 2v2l-8 6-3-3h-1l-4 1 1 3-1 4 2 5-5 3-6-3 1 4v3l-1 4 8-4 3 2 1-3v-4l2-3-3-2 2-4 3-2 2 2 2-1 3 3 6-6 4 2v6l2 3v4l2 4 2 5 1 2-2 2-3-4-1 4 3 4-4 2-4 1 3 2v4h-2l-1 2-1-3-5 4 1 4-2 1v2l3 3-5 2 1 2 3 2 5-5 3-1-2-2 3-4-5 2-3-3 3-3 8 1h2l4-1 3 4 3-5v-2h-5-3l-5-4 2-4 3 2 1-3 5-2-4-4 2-4 2-2-3-3h4v-2l-3-1 2-4 2-1v-4l3-2 2 2 2 4-3 7 2 1v2l1 7v16l-1 5-2 2 3 1v6 2 5l-2 2 2 7 1 7-1 1 1 4h-3l-5 3-4 4 3 1 1 3-10-3-27-11-7-3 1-5-4-10v3 2l2 3-4 3-9-3 2-4-2-2-1-4h-3l1-4-2 2 1 5h-3l-7 2-3-3 6-6-2-4h-2-3l2-4 1-4-2-2v-3-2l4 1 3-2 2 4v4l3 2-1-4 5-4 2 5 1-4h4l2 2v-4l-3-3 4-3 4-1 3-5-2-2-2 2h-4l-3 1-4 4-4-3h-3l-4-1-4-3-3-2v-5h2l2-4 3-3 3 1 1 3-3 2h3l4-4 3 1-2 5h3l5-6 3-5-6 6-3-2 2-5-3-3 2-4 5-4 2 4 7-6 9-8z" fill="#0E87D1"/>
<path transform="translate(310,268)" d="m0 0 7 6 42 42 13 12 8 10 6 16 8 29 1 6-7-3-10-8-13-12-12-12-8-7-15-15-8-7-17-17-8-7-7-7 2-4 6-7 8-10z" fill="#435056"/>
<path transform="translate(711,269)" d="m0 0 5 5 11 13 1 5h2v2l-8 7-65 65-8 7-15 15-8 7-4 1 2-10 12-36 5-10 9-10 23-23 16-15 9-10 11-11h2z" fill="#445157"/>
<path transform="translate(402,572)" d="m0 0 6 2 1 3-3 3 4 3 4-3-2-3 7-5 5 5 3 4-2 4 3 4-2 2 1 3 3 1-1 4v2l2 3-5 4-5-3h-2l2 6h-2l5 6 2 2-5 3 4 6v5l-2 1-2-1 2 2 3 1-4 4-4-5v-3l-9 9-3-2-3-4-5-4 2 4-4 3-4-2 1-2-3-3 1-4 4-1 2-4 3-1-3-1-4 3-2 1 1 2-5 3-3-3-1-2-6 5-3-3h-2v-4l4-5-3-1h-3v-3l2-1-1-4-4 2v-3l2-3 2-4h4l2-2 3 2 8-6 2-4 3-4h-3l-4 1-4-2-4 3-3-3 2-3-5-1 2-3h5v-2h2l1 3 2-3h5l4 2h4v3l4-2v-2l-2-2zm-16 6-4 4 5 2 3-4zm4 1m-17 26m-1 1m47 17m7-11 3 1 2 4-2 1-6-3z" fill="#0D85CF"/>
<path transform="translate(468,497)" d="m0 0 4 5-3 2v3l-5 3-1 4-5 5-1 4 3 2-1-4 7-7 4-1 1 3 4 2 1 4h2l1-2h2l1 4 1-3 1 2 2-1v-5l5 5 3 7 8 6 2 2 7 1 1 4-1 5 1 4-7 7-4-3 1-2-5 2-4 2-2 2-1-2-5 1-2-4-10 10-7-5-6 5-4-3 2-4 3-2 2 2 7-6 2 2 5-4 4-6v-4l1-2-3-4-3 2 3 6-6 5-3-2-4 1-3 5-5-4-3 5-1 3-5 1-3 2 2 2h-2l-2 4h-3v-3l-2-2 1-4-1-4-1-1-2-5-2-3 3-1 2-4 2-1 1 3v4l2-2-1-3 5-5 3-1 2-5-2-2-4 3-4 2-9 9-5 6-3-3 2-4 10-10 1-6h2l-2-5 4-3h3l-4-5 2-3 6-1 2 3v3l4-2 1-1-2-2 5-4 2 2 4-2zm-26 20m-1 1m-4 24 1 2 2-1zm33 17m-33 3 4 1-1 2-3-1z" fill="#0E86D0"/>
<path transform="translate(425,505)" d="m0 0 4 5v4l-2 1 2 6 5-3 3 5-4 2-2 3 2 3-5 4-2-2h-3l-2 2 4 5-3 3h-2l2 5 3 1-1-5 2-1 3 3 3-2 5 7-2 2-4-2-6 2h-3l-4-3-3 3 5 5 5 2-1 2 3 1-2 5 3-1v2l-3 1h-2l-3 2-2-4-4 3-4-1-2-2 5-3-2-3-4 2 3-6-5 1-2 2h-2l-4 4h-2l-2 4-3 1-2 2-4-2v-3l-1-3 5-4-1-2h-3-3l-2 2-5 3-5 2-1-3v-1l-2-2 1-4 3-1 1-2v2l4 1v-2l6-2 5-2 4-2 2-5 2-3-4 2-5 4-1-3 3-1-3-4h4l2 1 2-6 5-4 2-4h5l2 3-4 3-5 4 1 2 9-4h2l1-2-2-2 4-2h3l-3-3 7-7-2-3 5-5h2zm-57 60 1 2h2v2h2l-2 7-5 1-1-3-2-2 2-3v-2z" fill="#0F88D3"/>
<path transform="translate(475,569)" d="m0 0h4l2 3-2 5-1 2 4 2v2l-8 6-3-3h-1l-4 1 1 3-1 4 2 5-5 3-6-3 1 4v3l-1 4 8-4 3 2 1-3v-4l2-3-3-2 2-4 3-2 2 2 2-1 3 3 6-6 4 2v6l2 3v4l2 4 2 5 1 2-2 2-3-4-1 4 3 4-4 2-4 1 3 2v4h-2l-1 2-1-3-5 4 1 4-2 1v2l3 3-5 2 1 2 2 3-7 6-2-4 1-5v-3-3l3-2-1-3h2l-1-4-3-2 1-3h5l2-4v-4l-1-5 2-3-2-2 3-2 2 2 1-2-2-2v-2l-5-2v3l-3 4 2 5-2 3 1 3-4-2-2-2v2l4 6-4 4-2-1 1-4-3-3-3 2-2-2 2-5-2-1-2 2h-4l-3 1-4 4-4-3h-3l-4-1-4-3-3-2v-5h2l2-4 3-3 3 1 1 3-3 2h3l4-4 3 1-2 5h3l5-6 3-5-6 6-3-2 2-5-3-3 2-4 5-4 2 4 7-6 9-8z" fill="#0C82CA"/>
<path transform="translate(438,511)" d="m0 0 2 2v3l1 7-2 1-1 4-11 11 1 3 5-2 2-4 10-10 4-1 3-2 2 4-5 5-4 5h-2l2 4-3 2-2-4v-3l-5 5 2 3 2 4 2 2-1 3 1 4v2l2 4 3-5v-3l6-2 2-1 2-5 3-2 4 4 2-4 2-2h3l4 2 4-5-3-5 4-4 2 1v2l2 4-2 4v3l-6 7-4 2-2-2-7 6-2-2-3 3 1 2 3 4v4l1 2-5 5-7-4h-4l-4 1-5-4v1l-3 2-2-1 1 3v4l3-1v3l-3 4v2l-2 1-1 5-3 2v-2l-2-1 2-3-3-3 2-5-5-5v-4l3-3h1l1-5-2-1-1 2-1-4-6-3v-2l-2-2 5-4 2 2 3 2 4-2 4-1 4 1-5-6-3 2-3-3 1 5h-4l-2-2v-4l4-4-5-4h2l1-3 3 1 2-1 2 2 3-4-2-2 2-3 1-2 3-1-3-5zm-1 51 1 3h3v-2zm5-45m-10 1m9 0m-4 24 3 1h-3z" fill="#0F8AD4"/>
<path transform="translate(615,527)" d="m0 0h3l3 8-2 3 1 3 3-1 1 4-11 11-2 4-3-2-6 5h-2l1 2-5 3-3 2h-2l-3 2-3-3-6 4-4 3-1 5-5 5h-2l-5 3-3 1-2-3-3 3v-3l3-4 5-7 4-2 6-5 5-5-1-3h-3l2-4 2-3 1-3 9-7 1-4 4-3 1 3 4-3 6-4 9-3h2zm2 11m5-10m14 0h1v7l-4 2-2 2-2-5zm-15 1m-1 1m7 5 2 1-4 4h-2v-2z" fill="#0C81CA"/>
<path transform="translate(507,591)" d="m0 0 4 2 1 5-3 6 2 1v2l1 7v16l-1 5-2 2 3 1v6 2 5l-4 4-2 3-2-2-4 4 4 2 3 1-3 5-1 3-4-1v4l-2 2-4 1-4-3 2-5 6-7-3-5 3-6-4 1h-2v3 2l3 4-5 5h-3-4l-4 3-2-4-1-4 3-5 3-1 3 2v-3l-4-3 2-4 4-4 3-1-2-2 3-4-5 2-3-3 3-3 8 1h2l4-1 3 4 3-5v-2h-5-3l-5-4 2-4 3 2 1-3 5-2-4-4 2-4 2-2-3-3h4v-2l-3-1 2-4 2-1v-4z" fill="#0C81CA"/>
<path transform="translate(446,460)" d="m0 0 4 2 22 33 11 16 3 4 1 7h-4l-1 2-2-1 1-3h-2l-1 3-3-1-2-5h-3v-4l-6 4-3 4h-2l1 4-4-2 2-5 5-6 2-4 4-2-1-3 3-2-3-3-5 5h-3-2l-2 2 2 3-5 2h-3l1-4h-4l-3-2 3-6h-2l-3 2-7-2h-3l-3-2-1-4-2-2 3-3 4 2 2 2 1-3 6-1v3l6-2 2 2 3 2 4-1 4 4-4-7v-2l-2-1 1-2-1-5h2l-2-4-5 2-6 5h-3l-3-4 3-2 2 2 5-6-2-10zm-5 30-3 2 2 4 3 1 2-4z" fill="#148AD3"/>
<path transform="translate(426,438)" d="m0 0 2 1 2 3 1-3 4 1 8 12-1 2h-3l-5 6-4-2v-2l-4 3-5-2-1 1v2l4-1v3l-7 2 1 3-5 3 1 4-6 5-7 7-4 3-1-1-1 2h-2l1 3-4 4 3 1-1 5-2 2-8-12 9-6 6-5-1-6 9-7 1-1-2-1 1-4-7-7-1-3 5-6 2 3v2l3 2 1-5 4 2h3l2-5 5-1 1-3v-3zm-18 19-2 6 4-2 2-2z" fill="#0D85CF"/>
<path transform="translate(270,219)" d="m0 0 7 1 7 6-2 4-8 8-7 8-12 14-2 3h-7l-6-5-1-5 3-5 11-13 13-14z" fill="#445056"/>
<path transform="translate(512,569)" d="m0 0h1v93l-2-4-2-5 2-4 1-3-2-1 1-3-1-2 1-1-3-2 4-5-2-1 1-5v-17l-2-5 2-9-4-3-2 4 1 2-2 2h-2l4 5h-3l-1 1 3 3-5 3 1 3h2v3l-5 4-2 2-2-2v3l5 4 4-1 3 1-2 4 1 2h-2l-1 3-2-1v-3l-3-1-4 2-6-2-4 2 3 2 4-2v3l-2 2 2 3-5 2-5 4-4-3 2-4 3-1-3-2 1-7 3-1 1-3h3l3 1v-4l-4-1 2-3h5v-3l-2-2 2-5 4 3-3-5-1-4-2-5 1-2-2-2v-5h3l4 4-2 5 2 2h2l1-5v-4l2-3v-5h4l1 1 5-7z" fill="#0F88D3"/>
<path transform="translate(749,219)" d="m0 0 6 1 8 7 13 15 6 7 1 2v6l-8 5-5-1-9-10-9-11-13-13h2l2-4z" fill="#445157"/>
<path transform="translate(445,463)" d="m0 0 3 1 1 8-7 6-2-2v2l1 3 6-3 5-4 3-1 2 2-1 6 1 3 1 1v3l4 7h-3l-4-3-3 1-5-4-2 2-6-3-3 2-2 2-5-4-2 2 4 4h-2l4 4 4-1 6 2 4-3 1 3-4 6-4-1-4 2-3-2-3 2-4-3-1-4-4-1-3-4-2-3 3-4 2-4-2-4h4 2v2l6-4 4-1 3-4v-4l4-3 2 2zm-23 19m19 8 4 4-3 3-4-3 1-3z" fill="#0D85CF"/>
<path transform="translate(460,619)" d="m0 0 2 4h3 2l-2 6v3l1 3h2l2 4-4 3h-4l-4-2-8 7 1 4h3l2-1 2 4v2l2 3-4 3-9-3 2-4-2-2-1-4h-3l1-4-2 2 1 5h-3l-7 2-3-3 6-6-2-4h-2-3l2-4 1-4-2-2v-3-2l4 1 3-2 2 4v4l3 2-1-4 5-4 2 5 1-4h4l2 2v-4l-3-3 4-3z" fill="#0E87D1"/>
<path transform="translate(615,527)" d="m0 0h3l3 8-3 4-3 3-8 6-3 4-2 4-7 2-3-3-5 3-4 2h-4-3-3l2-4 2-3 1-3 9-7 1-4 4-3 1 3 4-3 6-4 9-3h2z" fill="#0B7FC8"/>
<path transform="translate(385,431)" d="m0 0 9 2 20 7h6l5-3v2h-2l1 5-3 3h-4l-1 4-3 2-5-4 1 3h-2v2l-5-2v-3l-4 5 1 2-3 3-1-3-10 8-3 5-1-2 5-32 1-3z" fill="#108BD6"/>
<path transform="translate(471,649)" d="m0 0 2 1v4l7-5 2 2 4 5-3 2-3-2-3 3-1 4 2 5 5-4 5 2 3-3h2l-1-4-3-3 2-3-2-2h4l4-1v3l-2 2 1 4 2 4-7 7-1 4 4 2 4-2v-4h4l1-4 3-3-5-1-2-2 5-5 2 2 2-3 3 1 1 8 1 4-1 1 1 4h-3l-5 3-4 4 3 1 1 3-10-3-27-11-7-3 3-1h3l2-4 2-3-3-2-2 2v-4z" fill="#0E87D2"/>
<path transform="translate(481,531)" d="m0 0 5 2v3 4l1 6-3 2 3 1v4h4l1-4-4-2 2-4 2-3-2-2 5-4 3 1 1 5 1 4 5 6h2l-1-3-4-4 6-5 4 1v7 4l-6 7h-3l-2-2 1-2-5 2-4 2-2 2-1-2-5 1-2-4-10 10-7-5-6 5-4-3 2-4 3-2 2 2 7-6 2 2 5-4 4-6v-4l1-2-3-4z" fill="#0C81CA"/>
<path transform="translate(468,497)" d="m0 0 4 5-3 2v3l-5 3-1 4-5 5-1 4 2 3-3 3 2 3-2 2 1 4-3 1-7-5 2-3h2l2-5-2-2-4 3-4 2-9 9-5 6-3-3 2-4 10-10 1-6h2l-2-5 4-3h3l-4-5 2-3 6-1 2 3v3l4-2 1-1-2-2 5-4 2 2 4-2z" fill="#0E87D1"/>
<path transform="translate(420,603)" d="m0 0 4 3 3 1 3-2 2 6 4 2 3 2 4 1 2-1 3 3 3-1 1-3 5-2h3 3v3l-2 4-3 3h-4v2l3 3v3l-3 1-2-2h-3l1 4-4-2-1-3-3 3 1 4h-3l-3-5v-3h-2-3l-5-1-1-5 4-5-2-2h-3l-4 1-2-4h2l-3-4z" fill="#0F89D3"/>
<path transform="translate(419,536)" d="m0 0 4 1 2 3-3 3h-2l2 5 3 1-1-5 2-1 3 3 3-2 5 7-2 2-4-2-6 2h-3l-4-3-3 3 5 5 5 2-1 2 3 1-2 5 3-1v2l-3 1h-2l-3 2-2-4-4 3-4-1-2-2 5-3-2-3-4 2 3-6-5 1-2-1-1-6 7-4 2-5z" fill="#0E87D1"/>
<path transform="translate(475,569)" d="m0 0h4l2 3-2 5-1 2 4 2v2l-8 6-3-3h-1l-4 1 1 3-1 4 2 5-5 3-4-2h-3l-2-1 3-4-6 6-3-2 2-5-3-3 2-4 5-4 2 4 7-6 9-8z" fill="#0D85CE"/>
<path transform="translate(682,655)" d="m0 0h4v5l3 5-6 6 1 1 1 2 6-3h3v2l5-2 1 3-5 4-3 3-14 7h-2l-3-16 1-9 4-6z" fill="#118DD8"/>
<path transform="translate(414,610)" d="m0 0 5 1 5 6 2 2-5 3 4 6v5l-2 1-2-1 2 2 3 1-4 4-4-5v-3l-9 9-3-2-3-4-5-4 2 4-4 3-4-2 1-2-3-3 1-4 4-1 2-1 5 5 7 5h1l-7-7 4-2h3 2l2-4 4-3-2-4zm5 13m7-11 3 1 2 4-2 1-6-3z" fill="#0C82CB"/>
<path transform="translate(460,619)" d="m0 0 2 4h3 2l-2 6v3l1 3h2l2 4-4 3-3-3v-3l-4-5-6 5-2-2-2 2h-3l-4 4h-2l-1 3-4-1-2-2-3 2v-4l2-4-2-3v-3-2l4 1 3-2 2 4v4l3 2-1-4 5-4 2 5 1-4h4l2 2v-4l-3-3 4-3z" fill="#0B80C9"/>
<path transform="translate(426,438)" d="m0 0 2 1 2 3 1-3 4 1 8 12-1 2h-3l-5 6-4-2v-2l-4 3-5-2-4-1-4 2v-4l3-5 1-3 5-1 1-3v-3z" fill="#0E87D1"/>
<path transform="translate(472,499)" d="m0 0 5 3 9 13 1 7h-4l-1 2-2-1 1-3h-2l-1 3-3-1-2-5h-3v-4l-6 4-3 4h-2l1 4-4-2 2-5 5-6 2-4 4-2-1-3 3-2z" fill="#118BD5"/>
<path transform="translate(425,505)" d="m0 0 4 5v4l-2 1 2 6 5-3 3 5-4 2-2 3 2 3-5 4-2-2h-3l-3 2v-3l2-3-5-4-2-2-2 2v-3l6-7-2-2 5-5h2z" fill="#0E87D1"/>
<path transform="translate(477,599)" d="m0 0h5l2 2 1 4v3h-3l-1 1v3 3l-1 4-1 2 2 1-3 5-3-1-1 2 1 1 2 4-1 2-2-1h-3l-5 2-2-4v-3l2-5-3-1-2 2v-6l4-1 2-1 3 5v2l3-3-2-2-3-4 2-2 6 5-2-4 2-3-2-4 3-4-1-2z" fill="#0F89D4"/>
<path transform="translate(487,522)" d="m0 0 4 2 5 7 6 4 2 2 3 1-4 6 4 2 1 4h-4l-4-5-2-2v-3l-1-3 1-2-3 1h-2l-2 2 2 3-4 4 1 2 3 3-2 3-5 1v-5l-4-1 4-3-2-6 2-5-5-4 5-6z" fill="#0F89D4"/>
<path transform="translate(428,487)" d="m0 0 5 2 2 2 1-3 6-1v3l6-2 2 2 3 2 4-1 4 5-1 3h-2l-4 5-1 2-5-1-2 1-2-2 3-6h-2l-3 2-7-2h-3l-3-2-1-4-2-2zm13 3-3 2 2 4 3 1 2-4z" fill="#108BD6"/>
<path transform="translate(481,531)" d="m0 0 5 2v3 4l1 6-4 2 2 5-8 7-5 4-6-5-6 5-4-3 2-4 3-2 2 2 7-6 2 2 5-4 4-6v-4l1-2-3-4z" fill="#0E87D1"/>
<path transform="translate(440,452)" d="m0 0 5 3 2 5v3h-2l1 3-3 2-3-2-1-7-2-3zm-9 2v3l4 2 2 5-3 2-1-3h-2l-2 4h-3v-3l-5 2 2 5h-2l-1 2h-2v-2l-5 2v-4l4-3v-3l7-2-4-1v-2l-2-1 2-2 3 2 4 1z" fill="#0F8AD4"/>
<path transform="translate(399,596)" d="m0 0 3 1-3 5-3 4-1 5-3 2-2-2-7 8-6-2 1-3-2-1-1-4 8-7 3 2 1-4 5-1 3 2 2-4z" fill="#0F89D4"/>
<path transform="translate(601,583)" d="m0 0h2l-1 2zm-1 1m-1 1 4 3-4 5v3l-2 4-7 6-1 4-3 2-3 7-6 5-5 2-2-1v-2l4-3 1-5 9-8h3l-1-3 3-4 6-7 4-5zm4 1m-7 1 2 1-3 3v-3z" fill="#0B80C9"/>
<path transform="translate(390,610)" d="m0 0 3 2 3-2 2 4v4l-5 5-2 1 1 2-5 3-3-3-1-2-6 5-3-3h-2v-4l5-5h4v2l6-5z" fill="#0E88D2"/>
<path transform="translate(552,564)" d="m0 0m-1 1 2 4-7 7-4 2-4 4-2 4-4 2-5 1 1 3-2 2v-7l1-1-1-4 4-4h2l-1-3 4-3 1-5h3l1 5 9-6z" fill="#0D85CF"/>
<path transform="translate(384,549)" d="m0 0 3 1 4 6-5 3-4-2-3 3-5 3-5 2-1-3v-1l-2-2 1-4 3-1 1-2v2l4 1v-2l6-2zm-16 16 1 2h2v2h2l-2 7-5 1-1-3-2-2 2-3v-2z" fill="#0E86D0"/>
<path transform="translate(437,567)" d="m0 0 5 5 4-1h4l3 1 2 4-7 6-4-1-4 1-8 8-2-1 1-3h2l-1-3 4-5-3 1-2-2 1-6 3-1 1-2z" fill="#0D85CE"/>
<path transform="translate(573,567)" d="m0 0 4 2 1 4-3 2-1 5-5 5h-2l-5 3-3 1-2-3-3 3v-3l3-4 5-7 4-2z" fill="#0C81CA"/>
<path transform="translate(472,583)" d="m0 0 1 4h3l4-4 3 1-6 7-3 2-2-2-3 3 1 2 2 3-3 3 1 4v3l-3 1-3-3-5 4-3-1 1-4v-3l-1-4h3l4 2 4-3-2-4 1-5-1-2 2-2 4-1z" fill="#0F8AD5"/>
<path transform="translate(420,603)" d="m0 0 4 3 3 1 3-2 2 6 4 2 2 4v4l-3 6h-3l-5-1-1-5 4-5-2-2h-3l-4 1-2-4h2l-3-4z" fill="#0E87D1"/>
<path transform="translate(489,562)" d="m0 0 3 1-3 5 6 4h4l1 3 3-1 2 2 2-1 1 3-5 3-3 5-2-1 1-4-7-2 1-3-4-4-4 2-3 4-2 4-4-2 3-5 1-4-3-1 5-5 2 2z" fill="#0F8AD5"/>
<path transform="translate(397,619)" d="m0 0 4 2-2 2-2 1-5 5-1 4 3 1v3l4 2-3 1-29-12 3-2h3l4-2v3h3l5-4 3 5 6-6z" fill="#108CD7"/>
<path transform="translate(439,584)" d="m0 0 3 1 2 3h2l1-2h2v4l2 5-2 4 4-1 2-4 3 1-3 5-6 7-2 2-2-5 2-3-4 2-4 3-2-2 2-4 1-3-2-2 2-3-2-2 1-2-2-2z" fill="#0F89D3"/>
<path transform="translate(510,646)" d="m0 0h2v5l-4 4-2 3-2-2-4 4 4 2 3 1-3 5-1 3-4-1v4l-2 2-4 1-4-3 2-5 6-7-1-3 3-3 8-7z" fill="#0B80C8"/>
<path transform="translate(418,549)" d="m0 0 4 2 2 2 4-2 4-1 3 1 3 4-1 7-4 3-2-2v-2h2l-1-2-4 4-4-1-1 2-1-4-6-3v-2l-2-2z" fill="#0E87D1"/>
<path transform="translate(636,528)" d="m0 0h1v7l-4 2-2 2-2-5zm-9 7 2 1-4 4h-2v-2zm-9 3 2 1v2l3-1 1 4-11 11-2 4-3-2h-3l6-7v-3-3l4-3zm-5 9m-4-1m-2 1 2 1-5 5v-3z" fill="#0C82CB"/>
<path transform="translate(463,606)" d="m0 0 4 2 6 4 3 4v2l-4-2-2-2v2l4 6-4 4-2-1 1-4-3-3-3 2-2-2 2-5-2-1-2 2h-4l-3 1-4 4-2-1 1-4 7-7 3 3 4-2z" fill="#0D85CE"/>
<path transform="translate(426,491)" d="m0 0 5 2-2 1 4 4 4-1 6 2 4-3 1 3-4 6-4-1-4 2-3-2-3 2-4-3-1-4-4-1-3-4 3-2 2 2z" fill="#0B81C9"/>
<path transform="translate(414,554)" d="m0 0 3 1 3 3 5 2-1 2 3 1-2 5 3-1v2l-3 1h-2l-3 2-2-4-4 3-4-1-2-2 5-3-2-3-4 2 6-9z" fill="#0D84CD"/>
<path transform="translate(445,643)" d="m0 0v3 3l2-1 1 5 2 3-2 2 7 3 4-2-3-4v-3l1-3 3 3 3 10-2 3-9-2-18-7 2-4 4-1h2l-1-4z" fill="#108BD6"/>
<path transform="translate(507,591)" d="m0 0 4 2 1 5-3 6 2 1v2l1 7h-3l-3-3v4l3 1-4 2-4-1-2-5 4-4-3-3h4v-2l-3-1 2-4 2-1v-4z" fill="#0B7FC7"/>
<path transform="translate(459,643)" d="m0 0 4 2 3 3 4-1 1 3-5 5 1 1h3l3 3-5 4-1 4-6-2 1-4-4-10-3-2 2-4z" fill="#0C82CB"/>
<path transform="translate(468,513)" d="m0 0h2l1 8-4 2-4-4 1 3v3l3 3-1 3-5 4 3 3-2 4-2-1v-2l-3 1-2-2 1-5 1-2-2-2 4-4v-4l7-7z" fill="#0E88D2"/>
<path transform="translate(436,625)" d="m0 0 3 4v4l3 2-1-4 5-4 2 5 1 2-7 6h-2l-1 3-4-1-2-2-3 2v-4l2-4-2-3v-3-2l4 1z" fill="#0D85CE"/>
<path transform="translate(415,601)" d="m0 0m-5 1h5l2 4v2l2 3h-3l-6 1-2-2-5 5 2 3-3 3-4-1-2-5v-3l2-4 4-2 5-1zm-9 13 1 3z" fill="#0F88D3"/>
<path transform="translate(479,625)" d="m0 0 4 2-1 4-2 1 1 4-2 1v2l3 3-5 2 1 2 2 3-7 6-2-4 1-5v-3-3l3-2-1-3h2l-1-4-3-2 1-3h5z" fill="#0B80C8"/>
<path transform="translate(445,463)" d="m0 0 3 1 1 8-7 6-2-2v2l2 4v4l-2 3-4-1 1-4-2-2-1-5 4-5v-4l4-3 2 2zm-11 25 2 1-1 3-2-1z" fill="#0B80C9"/>
<path transform="translate(382,556)" d="m0 0 4 2h3l-2 4-5 5-2 4-5 5-3-2 1-5h-2v-2h-2v-2l5-3z" fill="#0F88D3"/>
<path transform="translate(512,540)" d="m0 0h1v28l-3-4 1-7-7 6-2 1-2-2v-3h-3l-5 2h-6l-1-3h2l1-2 4 1 3-3 4-1h4v3h3l5-6-1-3 1-5z" fill="#1390DB"/>
<path transform="translate(391,584)" d="m0 0 3 2-3 4-2 4-6 5-4 2-2-2-4 2-3-2 5-6 2-2h5l2-4 6-2z" fill="#0F8AD4"/>
<path transform="translate(399,524)" d="m0 0h5l2 3-4 3-5 4 2 5v3l-6 5-2-2 3-6-4 2-5 4-1-3 3-1-3-4h4l2 1 2-6 5-4z" fill="#0B80C8"/>
<path transform="translate(508,654)" d="m0 0 3 1 1 8 1 4-1 1 1 4h-3l-5 3-3-1v-2l2-1-1-5 3-3-5-1-2-2 5-5 2 2z" fill="#0D84CD"/>
<path transform="translate(512,583)" d="m0 0h1v79l-2-4-2-5 2-4 1-3-2-1 1-3-1-2 1-1-3-2 4-5-2-1 1-5v-17l-2-5 2-9-1-3 1-5z" fill="#1290DB"/>
<path transform="translate(407,496)" d="m0 0 3 4-1 4-4 3 1 4-7 7 1 3h2l-1 3-7 1v-4l3-5 4-6-3-3 1-4zm1 11m-1 1m-1 1m1 6m-1 1m-1 1 1 2-2-1z" fill="#108BD6"/>
<path transform="translate(670,575)" d="m0 0m9 0h2l1 3-6 7h-3l-8 8-3 1v-2h-2v-8l7-5v5l6-4z" fill="#118DD8"/>
<path transform="translate(499,557)" d="m0 0 3 4-3 2-3-2v2l-3 2 2 3 1 2 2-1 1 3-5 1-6-4 3-6-4 2-4 3-2-2-4 3-2-2 9-9 3 2h6l4-2z" fill="#0B80C8"/>
<path transform="translate(682,655)" d="m0 0h4v5l3 5-7 8h-3-3l2-4 3-4-4 2h-3l1-5 3-5z" fill="#0E86D0"/>
<path transform="translate(396,625)" d="m0 0 8 6 5 5 4-4 3 1-6 7-2 1-2-2-3-4-5-4 2 4-4 3-4-2 1-2-3-3 1-4 4-1z" fill="#0B7FC7"/>
<path transform="translate(447,534)" d="m0 0 5 2 4 5 4 4-4 3-6-2-2-2-4 3-2-4 2-3-1-3z" fill="#0D85CF"/>
<path transform="translate(426,438)" d="m0 0 2 1 2 3 1-3 4 1 2 4-8 1-4 2-3 3-3 7h-3-4l2-5 2-3 1-3 5-1 1-3v-3z" fill="#1187D0"/>
<path transform="translate(448,517)" d="m0 0h2l-2 4-3 4-2 4-9 9-5 6-3-3 2-4 10-10 1-4 5-1z" fill="#0D85CE"/>
<path transform="translate(468,497)" d="m0 0 4 5-3 2v3l-5 3-2 2h-2-3l-4-3 4-2-2-2 5-4 2 2 4-2z" fill="#0B81C9"/>
<path transform="translate(450,490)" d="m0 0 3 2 4-1 4 5-1 3h-2l-4 5-1 2-5-1-2 1-2-2 4-5 3-1-4-4 1-3z" fill="#0E88D2"/>
<path transform="translate(396,447)" d="m0 0v3l-3 4v4l-8 6-3 5-1-2 2-13 5-1 4-2zm5 0v3l-3 4 1 2-3 3-2-5z" fill="#108BD6"/>
<path transform="translate(499,669)" d="m0 0 6 2-1 2-2-1 2 4-3 3 3 1 1 3-10-3-17-7v-3l8 3 4-3 1 3v2l3 1 4-2v-4z" fill="#0F8AD5"/>
<path transform="translate(552,564)" d="m0 0m-1 1 2 4-7 7-4 2-4 4-2 4h-3v-4l3-3-2-2 5-3 7-6z" fill="#0C81CA"/>
<path transform="translate(446,460)" d="m0 0 4 2 10 15h-3l-3-3-5 3-5 4h-3l-3-4 3-2 2 2 5-6-2-10z" fill="#1A8CD2"/>
<path transform="translate(402,447)" d="m0 0 2 3v2l3 2 1-5 4 2 2 3v4l-2 2-4-2-2 5-8-6-1-4z" fill="#0C82CB"/>
<path transform="translate(483,553)" d="m0 0 3 4-10 10 1 2-4-1v-2l-4-1v-2h-2l-1 3-5-2 5-6 4 2 3 3z" fill="#0F88D3"/>
<path transform="translate(437,587)" d="m0 0 3 1v3 3 2 3l-4 1-4 5-2-1-3-5 2-2 2-5z" fill="#0F89D4"/>
<path transform="translate(438,511)" d="m0 0 2 2v3l1 7-2 1-1 4-9 9v-3l3-4-2-2 2-3 1-2 3-1-3-5z" fill="#0F8AD5"/>
<path transform="translate(485,632)" d="m0 0 8 1 1 3v3l-1 4v3l-3 1v-2h-2l-1 3-5 4-2-1 2-4 4-4 3-1-2-2 3-4-5 2-3-3z" fill="#0B7EC7"/>
<path transform="translate(433,639)" d="m0 0 4 4-2 4-4 4 3 4-5-1-7-3 1-3 8-7z" fill="#0F8AD5"/>
<path transform="translate(483,615)" d="m0 0 9 2 2 3-4 2-4 1 3 2v4h-2l-1 2-1-3-2 1-2-3-3-2 2-2v-4l4 1z" fill="#0D85CF"/>
<path transform="translate(593,553)" d="m0 0m-1 1 3 3-1 3-5 1-4 4h-4l-2 4-3-1-2 1-1-3 4-3 1-5 4 2 4-3 5-2z" fill="#0C82CB"/>
<path transform="translate(402,572)" d="m0 0 6 2 1 3-6 6 2 5-4 2-5-1 2-4-3-2v-2l4-1 2-1v-2l-2-2z" fill="#0C83CC"/>
<path transform="translate(601,583)" d="m0 0h2l-1 2zm-1 1m-1 1 4 3-4 5v3l-2 4-6 5-2-1-2 2v-3l4-6 8-8-1-3zm4 1m-7 1 2 1-3 3v-3z" fill="#0D85CE"/>
<path transform="translate(453,583)" d="m0 0 3 4v5l4 2-2 2h-2l-5 5-3-2 2-5-3-3 2-4z" fill="#0C81CA"/>
<path transform="translate(497,580)" d="m0 0 3 1-1 4h2l1 6-3 3 1 4-2 5h-3l-2-5 2-3-3-2 2-4 2-1 2 2-3-6z" fill="#0B7FC8"/>
<path transform="translate(452,479)" d="m0 0 4 2 1 3 1 1v3l4 7h-3l-4-3-3 1-4-3 1-4v-4l4 1z" fill="#0B81C9"/>
<path transform="translate(448,647)" d="m0 0 5 5 3-2 2 4v2l2 3-4 3-9-3 2-4-2-2-1-3z" fill="#0B80C8"/>
<path transform="translate(496,561)" d="m0 0 4 2 1 3 2 2v-3h2l1-2v2l4 2-5 6-4-2h-3l-4-1v-3l-2-2 4-2z" fill="#0F8AD4"/>
<path transform="translate(464,531)" d="m0 0 3 4v2l2 3-3 4-3 6-4-3-1-4-3-2v-2h5l2 2v-4l-2-2z" fill="#0D84CD"/>
<path transform="translate(456,519)" d="m0 0 2 3v2 3l-2 2 2 3-2 2 1 4-3 1-7-5 2-3h2l2-5v-4z" fill="#0B80C9"/>
<path transform="translate(471,516)" d="m0 0 4 2 2 6-5 5-2-2-3 2-5-4 1-6 3 1 1 2 3-1z" fill="#0D84CD"/>
<path transform="translate(385,510)" d="m0 0m-1 1 3 3-5 3-2-2zm-5 5m-5 1h5l1 4-3 5h-3l-1-2zm-3 8h2l3 6-4 3-3-4z" fill="#0D84CD"/>
<path transform="translate(379,576)" d="m0 0h2l1 3 2-3h5l2 3h-3l-5 2 5 5h-3-4l-3 2-3-3 2-3-5-1 2-3h5z" fill="#0C82CB"/>
<path transform="translate(479,531)" d="m0 0 2 1v2l2 4-2 4v3l-6 7-5-3 5-5 3-4-3-5z" fill="#0E86D0"/>
<path transform="translate(679,613)" d="m0 0h2l1 3-2 4v3l-3-1-8 8-2-5 2-1 1-5h2l1-3 5-1z" fill="#0F88D3"/>
<path transform="translate(469,551)" d="m0 0 4 5v3l-5 2-2-2-6 5-4-3 2-4 3-2 2 2z" fill="#0C81CA"/>
<path transform="translate(498,615)" d="m0 0h5v3l-5 4-2 2-2-2-2 6-5 3v-2h2v-4l-4-1 2-3h5zm-14 9m0 3 2 1 1 4-5-2 1-2z" fill="#108BD6"/>
<path transform="translate(484,597)" d="m0 0 4 1h4l-1 4 3 5-2 2-5-7 2 7-3 3-5-2-2-2 3-2 2 2 1-2-2-2v-2-4z" fill="#0B7FC7"/>
<path transform="translate(486,588)" d="m0 0 4 2v6l-3 3h-4-2l-1 2-5-1 2-4z" fill="#0C83CC"/>
<path transform="translate(506,610)" d="m0 0 6 5v8l-4 4-6-2 2-3v-3l3-3-3-2z" fill="#0D85CF"/>
<path transform="translate(461,564)" d="m0 0 4 2v3l2 3-4 4-2 4-3 2-5-2 5-5 3-5-2-4z" fill="#0D85CF"/>
<path transform="translate(458,639)" d="m0 0 4 2h4l-5 5-2-2-3 3-1 4-3 2-3-3 1-4z" fill="#0F89D4"/>
<path transform="translate(420,603)" d="m0 0 4 3 3 1 3-2 1 7-6 2-4 1-2-4h2l-3-4z" fill="#0F89D3"/>
<path transform="translate(486,517)" d="m0 0 5 5-1 2-3-2zm-3 4 1 2 3 1-6 7-7 5-2-4 6-5 1-1 1-2h2z" fill="#0C81CA"/>
<path transform="translate(691,670)" d="m0 0m-1 1h3l1 2 5-2 1 3-4 3-3 1-2-2-5 4-4-1v-3l5-3z" fill="#0D85CE"/>
<path transform="translate(394,577)" d="m0 0 3 1-1 5 3 3-5 6-4-2 3-4h-3l-2 1-1-4z" fill="#0E86D0"/>
<path transform="translate(369,531)" d="m0 0 3 3v1l6 2-6 8-3 3h-2l1-12z" fill="#108CD8"/>
<path transform="translate(575,601)" d="m0 0h2l2 5-4 6-4 3-3-2-2 2v-3l3-4z" fill="#0D84CD"/>
<path transform="translate(425,543)" d="m0 0 4 3 3-2 5 7-2 2-4-2-6 2h-3l-3-2 1-3 5 1-1-5z" fill="#0C82CB"/>
<path transform="translate(560,527)" d="m0 0h2l1 3-6 7h-3l-3 5-5 2v-4l10-10z" fill="#0D84CE"/>
<path transform="translate(289,481)" d="m0 0 2 1-3 11-2 8-6 18-2-4z" fill="#288CC9"/>
<path transform="translate(422,482)" d="m0 0m-1 1m-4 0 3 3-2 4v2l1 2-4 4v-2h-2v2l-5-2 6-7v-3z" fill="#0F89D4"/>
<path transform="translate(492,579)" d="m0 0 5 1v3 3l2 4h-3-2l-3 1-6-3 5-5z" fill="#0E87D2"/>
<path transform="translate(498,572)" d="m0 0 3 3 2-1 2 2 2-1 1 3-5 3-3 5-2-1 1-4-7-2z" fill="#108BD5"/>
<path transform="translate(431,523)" d="m0 0 2 3-2 2 2 3-5 4-2-2h-3l-3 2v-3l3-3v-3l5-1z" fill="#0C83CC"/>
<path transform="translate(448,504)" d="m0 0 4 2-1 4h2l2 5h-3-3l-4 1-1-3h2l-4-5 2-3z" fill="#0B80C9"/>
<path transform="translate(414,615)" d="m0 0 4 3-2 4-7 6-4-3 2-4z" fill="#0F88D3"/>
<path transform="translate(481,531)" d="m0 0 5 2v3 4l1 6-4 2-2 2-3-3 3-4v-4l1-2-3-4z" fill="#0B80C9"/>
<path transform="translate(635,665)" d="m0 0 3 3-4 5-3 3-4 6h-3l-6 5v-3l11-10 1-4z" fill="#0C81CA"/>
<path transform="translate(442,508)" d="m0 0 2 1 2 4-4 2-4-1v-3l2-2zm-5 3m-1 1m-1 1m-6 0 4 1v4l-5 4-2-7z" fill="#0F89D3"/>
<path transform="translate(631,548)" d="m0 0m-1 1 2 4-7 6h-2l-1-3zm-8 10m-1 1 1 2-2-1zm-2 2m-1 1 1 2-5 6-3-2v-2l5-3z" fill="#0B80C8"/>
<path transform="translate(392,538)" d="m0 0 3 1-3 4 1 2h-2l-2 4-5 1-3-1-1-3 7-4z" fill="#0E88D2"/>
<path transform="translate(679,664)" d="m0 0 3 1-5 6 1 2 3-2 1 4-6 5-2-1-1-10z" fill="#108BD6"/>
<path transform="translate(437,598)" d="m0 0 3 1 1 3-3 2 1 4v2l2 3h-3l-6-4v-6z" fill="#0C82CB"/>
<path transform="translate(437,567)" d="m0 0 5 5v3l-5 4h-3l-3-2 1-6 3-1 1-2z" fill="#0C81CA"/>
<path transform="translate(423,568)" d="m0 0 6 2v4 2l2 3-5 1-5-5v-4z" fill="#0E87D2"/>
<path transform="translate(430,632)" d="m0 0 3 1-1 4-11 10-4-3z" fill="#0E86D0"/>
<path transform="translate(500,552)" d="m0 0 3 1v3 4l-4-2-5 2-5 1-4-1v-2h2l1-2 4 1 3-3 4-1z" fill="#0F88D3"/>
<path transform="translate(691,628)" d="m0 0m-1 1m-1 1 1 3-4 3-6 4-3 1-2 2-2-4 11-8z" fill="#0E86D0"/>
<path transform="translate(568,599)" d="m0 0h2v2l-3-1zm-2 2m-1 1m-1 1m-5 1 3 3-8 9-5 2v-4l6-5z" fill="#0C82CB"/>
<path transform="translate(399,502)" d="m0 0m-1 1 1 4 4 4-5 5-3 4 1 2-3 1-2-2-1-3 6-7 2-1-2-2v-4z" fill="#0D83CD"/>
<path transform="translate(510,556)" d="m0 0 2 1v5 4l-1 3-2-1-3-3h-3l1 3h-3l-2-4 5-2z" fill="#0A7EC6"/>
<path transform="translate(508,654)" d="m0 0 3 1 1 4-5 5-6-2-2-2 5-5 2 2z" fill="#0E87D1"/>
<path transform="translate(487,534)" d="m0 0 2 1-2 3 2 1v2h-2l3 6 3 3-2 3-5 1v-5l-4-1 4-3-2-6 2-4z" fill="#108CD8"/>
<path transform="translate(419,536)" d="m0 0 4 1 2 3-4 3-5 3-2-2-3 2v-3z" fill="#0D84CE"/>
<path transform="translate(415,599)" d="m0 0h6l7 7-2 2-5-3h-2l2 6-4-2-2-2v-3z" fill="#0C82CB"/>
<path transform="translate(415,601)" d="m0 0m-3 1h3l2 4v2l2 3h-3l-6 1-2-3 1-5z" fill="#0F8AD4"/>
<path transform="translate(425,505)" d="m0 0 4 5v4l-3 1h-4-3l-2-2 5-5h2z" fill="#0B81C9"/>
<path transform="translate(365,554)" d="m0 0 3 3v2l2 2-2 5-3 1 1 3-3 5h-1l1-12z" fill="#118DD8"/>
<path transform="translate(418,549)" d="m0 0 4 2 2 2 2-1-2 6 1 2-6-1-3-3-2-3z" fill="#0F89D4"/>
<path transform="translate(454,473)" d="m0 0 3 2-1 5-4-1 1 4h-7v-4l6-5z" fill="#0F89D3"/>
<path transform="translate(503,662)" d="m0 0 4 1-3 5-1 3-4-1v4l-2 2-4 1-2-2 4-4 6-7z" fill="#0A7DC4"/>
<path transform="translate(390,610)" d="m0 0 3 2 3-2 2 4v4l-5 5-3-3 2-3-2-2-2-3z" fill="#0B80C9"/>
<path transform="translate(584,607)" d="m0 0h2l-4 8-4 2-3 3-1-4zm-10 13 2 4-4 2-2-1v-2z" fill="#0D84CE"/>
<path transform="translate(450,564)" d="m0 0 3 1v3l5 1 1-2 3 4-5 5-3-1v-4l-3-2v-2h-3l-1 2-1-2 2-2z" fill="#0E88D2"/>
<path transform="translate(490,650)" d="m0 0 4 1h4l-3 4 1 4 2 4-4 2-2-6-3-3 2-3-2-2z" fill="#0F89D4"/>
<path transform="translate(390,616)" d="m0 0 3 1-2 3 1 5-5 4-3-3 1-5z" fill="#0E86D0"/>
<path transform="translate(476,599)" d="m0 0 2 4-3 4 2 5-3 2-5-5v-3z" fill="#0B80C9"/>
<path transform="translate(585,544)" d="m0 0m-1 1m-1 1m-1 1 2 3-1 4-5 5-4 2v-4l3-4 1-3z" fill="#0C81CA"/>
<path transform="translate(399,524)" d="m0 0h5l2 3-4 3-7 5-4-2 6-5z" fill="#0D84CD"/>
<path transform="translate(424,464)" d="m0 0h2l2 7 4 3 1 2-6 1-4-4v-2l-2-5zm3 2m-6 5 2 1-2 1z" fill="#0D84CD"/>
<path transform="translate(499,661)" d="m0 0 3 1-2 4-4 5-4 4-3-1 2-5z" fill="#0C82CB"/>
<path transform="translate(428,487)" d="m0 0 5 2 2 4-2 3v3l-4-3-1-4-2-2zm11 0h3l-1 4-4 1-2-3z" fill="#0F89D3"/>
<path transform="translate(391,627)" d="m0 0 6 2 3 6-4 3-4-2 1-2-3-3z" fill="#0D85CE"/>
<path transform="translate(455,594)" d="m0 0 3 1-3 5-6 7-2 2-2-5 2-3-2-2 3-2 2 2 4-2z" fill="#0F8AD5"/>
<path transform="translate(484,548)" d="m0 0 3 1v4l7-2 1 2 2 1-6 5-1-2-5 1-2-9z" fill="#0B80C8"/>
<path transform="translate(391,457)" d="m0 0 2 1v4l-5 6-2 2-4 2-1-3 4-6 5-4z" fill="#0D85CF"/>
<path transform="translate(512,633)" d="m0 0h1v29l-2-4-2-5 2-4 1-3-2-1 1-3-1-2 1-1-3-2z" fill="#118ED9"/>
<path transform="translate(564,528)" d="m0 0m-1 1m-1 1m-1 1 1 4-8 9-3-3 3-5 5-3zm-11 11m-2 1 3 1-2 2z" fill="#0B7FC8"/>
<path transform="translate(490,590)" d="m0 0 4 2 2 4-2 4 2 2-2 4-4-4 1-4-2-2v-5z" fill="#0F8AD5"/>
<path transform="translate(679,575)" d="m0 0h2l1 3-6 7h-3l-4 3v-4z" fill="#0D85CE"/>
<path transform="translate(423,513)" d="m0 0 3 1-1 4-6 5-2 2-2-2-2 2v-3z" fill="#0D85CE"/>
<path transform="translate(423,471)" d="m0 0 5 5 3 1-4 4-7-2-2-1v-3z" fill="#0F89D4"/>
<path transform="translate(507,591)" d="m0 0 4 2 1 5-2 4-3 1-2-2-1-7z" fill="#0C81CA"/>
<path transform="translate(433,443)" d="m0 0 5 2 3 4-1 2-5-3-5 3-4-4 3-3 4 1z" fill="#0C7FC6"/>
<path transform="translate(467,655)" d="m0 0 4 2 2 2-5 4-1 4-6-2 2-4 4-5z" fill="#0B7FC8"/>
<path transform="translate(511,624)" d="m0 0 1 4v4l-2 4h-3l-4-3z" fill="#0C81CA"/>
<path transform="translate(455,600)" d="m0 0 4 5-4 4h-2l-4 2-1-4z" fill="#0C81CA"/>
<path transform="translate(439,584)" d="m0 0 3 1 3 5v4l-4 4-3-3 2-3-2-2 1-2-2-2z" fill="#0B80C8"/>
<path transform="translate(437,478)" d="m0 0 4 1 1 3v4l-2 3-4-1 1-4-2-2v-3zm-3 10 2 1-1 3-2-1z" fill="#0C82CB"/>
<path transform="translate(489,657)" d="m0 0 4 2 1 2-5 5h-3l-3-3z" fill="#0C81CA"/>
<path transform="translate(391,591)" d="m0 0 2 1v1l3 2-1 3-1-2h-2l-2 4-5 1v-4z" fill="#0E88D2"/>
<path transform="translate(406,532)" d="m0 0 2 4-4 6h-3l-3-3 1-4 5-2z" fill="#0D84CD"/>
<path transform="translate(410,526)" d="m0 0 7 1 2 5-5 2-4 1-2-2 2-3-2-2z" fill="#0C82CB"/>
<path transform="translate(491,640)" d="m0 0 2 1 1 4-4 2v-2h-2l-1 3-5 4-2-1 2-4 4-4h3z" fill="#0B80C8"/>
<path transform="translate(606,473)" d="m0 0 3 3-6 7-3 2-2-4z" fill="#0C81CA"/>
<path transform="translate(405,626)" d="m0 0 4 1h4l2 3-3 4-4-2-5-4z" fill="#0C81CA"/>
<path transform="translate(370,613)" d="m0 0 2 1-2 5-7 6h-4l2-4 8-7z" fill="#0E87D1"/>
<path transform="translate(457,598)" d="m0 0 5 4 1 4-4 5-3-1 1-4v-3l-1-4z" fill="#0E88D2"/>
<path transform="translate(432,523)" d="m0 0h5l2 4-10 10v-3l3-4-2-2 2-3z" fill="#118DD9"/>
<path transform="translate(681,581)" d="m0 0m-1 1m-1 1 1 4-3 3-7 5-3 2v-3l8-8z" fill="#0F88D1"/>
<path transform="translate(417,573)" d="m0 0 4 5-2 4-3 2v-2l-3 1v-4l-1-2z" fill="#0E86D0"/>
<path transform="translate(494,530)" d="m0 0 2 4-5 4 2 3-3 3-3-1v-2h2v-2l-3-1 5-5z" fill="#0E87D1"/>
<path transform="translate(508,569)" d="m0 0 3 4-4 4-4-1-5-1 3-5 4 2z" fill="#0B7FC7"/>
<path transform="translate(614,547)" d="m0 0 2 3-2 4-3 5-3-2h-3l6-7z" fill="#0D84CD"/>
<path transform="translate(508,538)" d="m0 0 4 1-2 5-5 3-3-4z" fill="#0C82CB"/>
<path transform="translate(636,528)" d="m0 0h1v7l-4 2-2 2-2-5zm-9 7 2 1-4 4-2-2z" fill="#0D85CF"/>
<path transform="translate(377,617)" d="m0 0h4l1 3-3 2-2-2v2l2 6h-3l-2-2h-2v-4z" fill="#0A7EC6"/>
<path transform="translate(455,590)" d="m0 0 1 2 4 2-2 2h-2l-5 5-3-2 2-4z" fill="#0B7FC8"/>
<path transform="translate(397,562)" d="m0 0 2 1-4 2-2 4-3 1-2 2-4-2v-3-2l6 2z" fill="#0C82CA"/>
<path transform="translate(468,513)" d="m0 0h2l1 8-4 2-2-3-3-2 4-4z" fill="#0E86D0"/>
<path transform="translate(391,445)" d="m0 0m-1 1 3 1-1 5-4 2-4-1 1-5 4-1z" fill="#0E87D1"/>
<path transform="translate(506,639)" d="m0 0 3 2 3 1-2 5-3 2-4-5 2-4z" fill="#0E87D1"/>
<path transform="translate(630,605)" d="m0 0h2l1 3-4 6h-3l-4-1 4-5z" fill="#0D85CF"/>
<path transform="translate(454,539)" d="m0 0 6 5-4 4-6-2-1-3z" fill="#0E88D2"/>
<path transform="translate(459,497)" d="m0 0 2 3-5 5 2 3-5 2h-3l2-4 3-5z" fill="#108BD6"/>
<path transform="translate(389,492)" d="m0 0 2 4-1 1 3 1-1 5-2 2-6-9z" fill="#0E86D0"/>
<path transform="translate(451,639)" d="m0 0 3 2-2 4-8 5v-4l4-4z" fill="#0D85CF"/>
<path transform="translate(482,630)" d="m0 0 3 1-2 4 2 4-4 2-3-2 1-7z" fill="#0E87D1"/>
<path transform="translate(450,627)" d="m0 0 3 1 2 2 3 1-5 5-2-2-2 2v-3l-1-4z" fill="#0B7FC7"/>
<path transform="translate(399,580)" d="m0 0 4 5 2 3-4 2-5-1 2-4-3-2v-2z" fill="#0B7FC7"/>
<path transform="translate(464,575)" d="m0 0 3 3-10 10-3-2 5-5z" fill="#0F89D4"/>
<path transform="translate(457,477)" d="m0 0 5 3v5l-3 2-4-2 1-2-1-5z" fill="#1690DB"/>
<path transform="translate(435,447)" d="m0 0h3l5 5-1 2h-3l-2 2-2-3h-3l-1-3z" fill="#0D85CF"/>
<path transform="translate(478,670)" d="m0 0 8 3 4-3 1 3v2l4 4-9-3-9-4z" fill="#118EDA"/>
<path transform="translate(459,643)" d="m0 0 4 2 2 4-4 3-5-2v-4z" fill="#0B81C9"/>
<path transform="translate(428,639)" d="m0 0 2 4-8 7-4-1 5-5z" fill="#0F88D3"/>
<path transform="translate(537,566)" d="m0 0 3 3 1 5-6 3-4-1 4-4 1-5z" fill="#0D84CD"/>
<path transform="translate(461,633)" d="m0 0 4 5-4 4-3-2h-4l5-5z" fill="#0D85CE"/>
<path transform="translate(407,467)" d="m0 0 4 3 3 4-4 3-6-5 1-3h2z" fill="#0B80C9"/>
<path transform="translate(503,635)" d="m0 0 5 1v2h4v2l-4 2-2-2-4 2-1-3z" fill="#0D84CD"/>
<path transform="translate(433,635)" d="m0 0 4 2 3 5-4 1-3-3-3 2v-4z" fill="#0B80C8"/>
<path transform="translate(500,628)" d="m0 0h5v4 3h-2l-1 3-2-1v-3l-3-3z" fill="#0F8AD4"/>
<path transform="translate(403,470)" d="m0 0 3 3-2 4-4 3-1-3-3-1z" fill="#0E86D0"/>
<path transform="translate(359,591)" d="m0 0 4 1v3 6h-2l-1-2-1 2h-2l1-9z" fill="#108DD8"/>
<path transform="translate(414,554)" d="m0 0 3 1 3 5h-3l-6 2-4 2 6-9z" fill="#0B7FC7"/>
<path transform="translate(374,523)" d="m0 0 3 1-1 3-3-3zm-3 2h2l3 6-4 3-3-4z" fill="#0E86D0"/>
<path transform="translate(418,458)" d="m0 0h2v2l4-1v3l-7 2 1 3h-3l-2-4z" fill="#0C83CC"/>
<path transform="translate(436,625)" d="m0 0 3 4-6 5-3-3v-3-2l4 1z" fill="#0B80C8"/>
<path transform="translate(503,617)" d="m0 0h2v4l-4 6-3-2-1-5 4-2z" fill="#0C83CC"/>
<path transform="translate(492,563)" d="m0 0 2 1v2l2 4 2-1 1 3-5 1-6-4 2-4z" fill="#0A7EC6"/>
<path transform="translate(578,558)" d="m0 0 3 3v6l-2 2-3-1-2 1-1-3 4-3z" fill="#0E87D1"/>
<path transform="translate(475,536)" d="m0 0 2 1 2 4-5 4-4-4 1-3z" fill="#0B80C9"/>
<path transform="translate(683,664)" d="m0 0 3 4-5 5h-2-3l2-4z" fill="#0B7FC8"/>
<path transform="translate(476,646)" d="m0 0h3l1 3-7 6-2-4z" fill="#0C81CA"/>
<path transform="translate(477,599)" d="m0 0h5l2 2 1 4v3h-3l-1-4-5-2z" fill="#108CD7"/>
<path transform="translate(394,577)" d="m0 0 3 1-4 6-5 3-1-4z" fill="#0D85CE"/>
<path transform="translate(370,552)" d="m0 0 1 2h3l-1 5-3 2-4-1v-3l2-3h2z" fill="#0C83CC"/>
<path transform="translate(491,524)" d="m0 0 7 6 7 5 3 1-1 3-5-2v-2l-4-2-3-1-4-6z" fill="#0F7EC3"/>
<path transform="translate(426,491)" d="m0 0 5 2-5 4-4 2-4-5 3-2 2 2z" fill="#0B80C8"/>
<path transform="translate(497,632)" d="m0 0 4 2v3l-3 3-3-2h-3z" fill="#0C83CC"/>
<path transform="translate(479,625)" d="m0 0 4 2-5 5-5-2v-4h5z" fill="#0B81C9"/>
<path transform="translate(358,613)" d="m0 0v3l-2 3h3l3 1-4 5-3-2-1-2v-6z" fill="#1290DA"/>
<path transform="translate(487,571)" d="m0 0 3 1 2 2 2 3-3 2-2-2h-3-3l2-4z" fill="#0B7EC7"/>
<path transform="translate(389,558)" d="m0 0h2l2 6-6 3-4-3 5-4z" fill="#0E86D0"/>
<path transform="translate(484,558)" d="m0 0 2 4-8 7-3-2z" fill="#0B80C9"/>
<path transform="translate(434,478)" d="m0 0 2 1 1 4 1 2-4 4-3-3 1-4z" fill="#0F88D3"/>
<path transform="translate(505,563)" d="m0 0 1 2 4 2-5 6-2-1v-7h2z" fill="#0D85CF"/>
<path transform="translate(494,639)" d="m0 0 4 4h-2l2 4-4 3-3-3 2-3v-4z" fill="#0F8AD4"/>
<path transform="translate(423,615)" d="m0 0 4 1 2 2-2 3v2l-5 2v-2l-2-1 4-3z" fill="#108CD7"/>
<path transform="translate(461,611)" d="m0 0 3 3-3 5-3 3-1-8z" fill="#0F8AD4"/>
<path transform="translate(461,564)" d="m0 0 4 2v3l2 3-3 2-3-3-2-5z" fill="#0B80C8"/>
<path transform="translate(631,548)" d="m0 0m-1 1 2 4-6 5-4-1 4-5z" fill="#0D84CD"/>
<path transform="translate(498,544)" d="m0 0 4 2v4l-3 2-5-5z" fill="#0D85CE"/>
<path transform="translate(479,531)" d="m0 0 2 1v2l2 4-2 2-4-1-2-4z" fill="#108BD6"/>
<path transform="translate(496,531)" d="m0 0 6 4 1 4-4 2-2-4 1-2-3 1z" fill="#108BD6"/>
<path transform="translate(479,520)" d="m0 0h2l-1 5v3l-4 1-3 2 1-5z" fill="#0F89D4"/>
<path transform="translate(408,496)" d="m0 0 5 2v-2h2l1 6-3 2-4-4z" fill="#0C83CC"/>
<path transform="translate(436,469)" d="m0 0 3 4-6 5-2-2-1-4 5-2z" fill="#0F8AD4"/>
<path transform="translate(455,655)" d="m0 0 5 3-4 4-5-1 1-4z" fill="#0C81CA"/>
<path transform="translate(623,647)" d="m0 0 2 2-3 4-3 5-4-1v-2l5-5z" fill="#0B7FC7"/>
<path transform="translate(488,645)" d="m0 0h2l5 6h-3-2l-2 2-4-4z" fill="#0C83CC"/>
<path transform="translate(503,548)" d="m0 0 4 5v3l-3 2-3-3 1-2-2-2z" fill="#0B7FC8"/>
<path transform="translate(399,541)" d="m0 0m-1 1 2 3-6 7-4-2 5-5z" fill="#0E87D1"/>
<path transform="translate(463,519)" d="m0 0 3 1 4 7-3 2-5-4z" fill="#0B7FC8"/>
<path transform="translate(410,502)" d="m0 0 5 2-3 3-5 2h-3l2-4z" fill="#0E86D0"/>
<path transform="translate(393,493)" d="m0 0m-1 1 3 2 2-1 1 3-5 4v-4l-4-1zm0 8 2 3h-3z" fill="#108BD6"/>
<path transform="translate(411,561)" d="m0 0 3 4-5 3-3 1-2-2z" fill="#108BD6"/>
<path transform="translate(431,544)" d="m0 0 5 5 1 2-2 2-6-3v-4z" fill="#0B80C9"/>
<path transform="translate(697,625)" d="m0 0 2 1v2l-3 1v-3zm-2 4m-1 1m-1 1m-2 1h2l2 5-3 2-3-3z" fill="#0F89D3"/>
<path transform="translate(445,600)" d="m0 0 3 1-5 5-3 1 2 5-4-2-1-2h2l2-4z" fill="#0B7FC7"/>
<path transform="translate(423,591)" d="m0 0 4 1v2l3 1-1 4-4-1-3-3h2z" fill="#0C82CB"/>
<path transform="translate(472,579)" d="m0 0 6 5-2 4h-3l-2-2 1-4z" fill="#0D84CE"/>
<path transform="translate(399,563)" d="m0 0 3 3-5 6-3-2 2-4z" fill="#0E87D1"/>
<path transform="translate(384,549)" d="m0 0 3 1 4 6-3 2-6-5z" fill="#0B80C8"/>
<path transform="translate(477,527)" d="m0 0 4 4-7 5-2-4z" fill="#0B80C8"/>
<path transform="translate(680,671)" d="m0 0 2 4-6 5-2-1 1-4z" fill="#0E88D2"/>
<path transform="translate(679,613)" d="m0 0h2l-1 3zm-1 2m-5 1h5l-2 6h-3l-3-3h2z" fill="#0D85CF"/>
<path transform="translate(479,602)" d="m0 0m-1 1 3 1-1 4-2 3-4-2 2-4z" fill="#0E87D1"/>
<path transform="translate(575,573)" d="m0 0m-1 1m-1 1 2 4-5 6-3-3v-2z" fill="#0C83CC"/>
<path transform="translate(441,556)" d="m0 0 4 2-1 5h-3v-3l-2-2zm-4 6 4 1-1 2-3-1z" fill="#0C82CB"/>
<path transform="translate(495,554)" d="m0 0 2 1-4 6h-7l-1-3h2l1-2 4 1z" fill="#108CD8"/>
<path transform="translate(464,531)" d="m0 0 3 4v2l2 3h-3l-6-4z" fill="#0B7FC8"/>
<path transform="translate(431,463)" d="m0 0h2l1 3-3 4-1 3-4-3 1-3z" fill="#0E87D1"/>
<path transform="translate(405,454)" d="m0 0 4 2-3 7-5-5z" fill="#0B80C8"/>
<path transform="translate(684,674)" d="m0 0 5 1v3l-3 2-4-1v-3z" fill="#0C81CA"/>
<path transform="translate(480,655)" d="m0 0 3 3-7 6v-4l2-4z" fill="#0A7EC5"/>
<path transform="translate(468,616)" d="m0 0 4 2 2 4-4 4-2-1 1-4-2-4z" fill="#0B7FC7"/>
<path transform="translate(669,617)" d="m0 0 2 2-1 6-4 2-1-6z" fill="#118CD6"/>
<path transform="translate(487,605)" d="m0 0 2 4-3 3-5-2-2-2 3-2 2 2z" fill="#0B80C9"/>
<path transform="translate(455,530)" d="m0 0 3 1-2 3 1 4-3 1-4-4z" fill="#0B7FC7"/>
<path transform="translate(455,487)" d="m0 0h2l5 8h-3l-4-3-3 1 1-4z" fill="#0D84CD"/>
<path transform="translate(526,566)" d="m0 0 3 4 2 4-5 5z" fill="#108CD7"/>
<path transform="translate(393,555)" d="m0 0m-2 1 2 1 1 2 3 4-8 5 2-6-1-5z" fill="#108BD6"/>
<path transform="translate(432,558)" d="m0 0 1 3-4 6-4 1 1-4z" fill="#0F89D3"/>
<path transform="translate(559,553)" d="m0 0 2 2-2 5-4 3-2-4 5-5z" fill="#0C82CB"/>
<path transform="translate(394,455)" d="m0 0 2 1 1 5-4 3v-2l-2-1zm4 2 3 1-1 2z" fill="#0E88D2"/>
<path transform="translate(657,669)" d="m0 0 2 4-1 4-5 3-2 1-1-3 5-3v-3z" fill="#097BC2"/>
<path transform="translate(527,644)" d="m0 0 4 2-1 5-3 2-1-5z" fill="#0F88D3"/>
<path transform="translate(437,605)" d="m0 0h2l-1 4 3 4h-3l-6-4v-2l4-1z" fill="#0D84CE"/>
<path transform="translate(440,535)" d="m0 0 2 3v4l-2 2-6-2 1-2h2l2-4z" fill="#0B7EC7"/>
<path transform="translate(635,665)" d="m0 0 3 3-5 5-4-1z" fill="#0D84CD"/>
<path transform="translate(473,639)" d="m0 0 2 2 3 1-2 5-5 2 2-5-2-3z" fill="#097CC3"/>
<path transform="translate(442,618)" d="m0 0 4 2-4 4-3 2-1-4z" fill="#0B7FC8"/>
<path transform="translate(463,606)" d="m0 0 4 2-1 5h-3l-2-3z" fill="#0E87D1"/>
<path transform="translate(420,599)" d="m0 0 4 2 4 6h-3l-4-2-2-5z" fill="#0B7FC8"/>
<path transform="translate(418,590)" d="m0 0m-1 1 2 4-5 3-5-3 4-1z" fill="#0F89D3"/>
<path transform="translate(475,569)" d="m0 0h4l2 3-2 5-6-5z" fill="#0B7FC8"/>
<path transform="translate(404,568)" d="m0 0 4 2 2 3-4 2-4-4z" fill="#0F88D3"/>
<path transform="translate(460,555)" d="m0 0 2 3v2 3h-3l-3-2 2-4z" fill="#0B7FC7"/>
<path transform="translate(385,536)" d="m0 0 7 1-2 4-5 4-1-3 3-1-3-4z" fill="#0C83CC"/>
<path transform="translate(468,497)" d="m0 0 4 5-3 2 1 2-4-2-1-3z" fill="#0C83CC"/>
<path transform="translate(401,443)" d="m0 0 1 2-3 5-6 5v-3l4-5h2z" fill="#0C81CA"/>
<path transform="translate(512,676)" d="m0 0h1v10l-5-1-3-2 3-1h3v-5z" fill="#1290DC"/>
<path transform="translate(526,607)" d="m0 0 1 3 2 1-1 5 2 3-4 3z" fill="#118EDA"/>
<path transform="translate(575,601)" d="m0 0h2l2 5-3 2-3-2-3 3v-3z" fill="#0D86CF"/>
<path transform="translate(500,600)" d="m0 0 1 3-4 5-1 2-3-1 2-5z" fill="#0E87D1"/>
<path transform="translate(592,598)" d="m0 0 3 2-2 4h-3l-3 2v-3l4-2z" fill="#0D83CD"/>
<path transform="translate(410,597)" d="m0 0h2l1 5-6 2v-4z" fill="#0E86D0"/>
<path transform="translate(487,560)" d="m0 0h5l-5 5-4 3v-4z" fill="#0A7EC6"/>
<path transform="translate(527,548)" d="m0 0 1 4v3 6l2 3h-3l-1-1v-14z" fill="#118EDA"/>
<path transform="translate(392,538)" d="m0 0 3 1-3 4 1 2-4-1v-3zm-6 4 2 1-1 3z" fill="#0F89D4"/>
<path transform="translate(451,513)" d="m0 0 2 4-3 2v-2h-2l-2 4-2-1 2-4z" fill="#0F89D3"/>
<path transform="translate(461,510)" d="m0 0 1 2 2 1-6 5-2-4z" fill="#0D85CE"/>
<path transform="translate(425,501)" d="m0 0 4 2 1 4h-4l-1-1-1 2-2-1 2-5z" fill="#0F89D4"/>
<path transform="translate(446,496)" d="m0 0 2 3-4 6-4-3z" fill="#0B7FC7"/>
<path transform="translate(442,487)" d="m0 0m-1 3 4 4-3 3-4-3 1-3z" fill="#0D84CE"/>
<path transform="translate(387,458)" d="m0 0 2 2-5 6-3 3 1-9 4-1z" fill="#1392DD"/>
<path transform="translate(495,637)" d="m0 0 4 3 1 5h-4l-1-4-1-3zm5 1 2 1z" fill="#0B7FC7"/>
<path transform="translate(398,631)" d="m0 0 5 2 1 2-3 3-4 1 2-5z" fill="#0E88D2"/>
<path transform="translate(417,631)" d="m0 0 3 3-5 6-2-1 1-4z" fill="#0E87D1"/>
<path transform="translate(443,626)" d="m0 0 2 2-3 3 1 4h-3l-2-4z" fill="#118DD9"/>
<path transform="translate(500,611)" d="m0 0 3 1 4 3 2 2-4 1-4-1-2-5z" fill="#0B81C9"/>
<path transform="translate(414,610)" d="m0 0 5 1 3 5-3 2-5-6z" fill="#0B80C8"/>
<path transform="translate(502,601)" d="m0 0 4 4h-3l-1 1-1 3-4-2z" fill="#108CD7"/>
<path transform="translate(427,598)" d="m0 0m-1 1 5 5-4 2-3-3z" fill="#0E86D0"/>
<path transform="translate(497,580)" d="m0 0 3 1-1 4h2l1 3-4 1-3-5z" fill="#0A7EC6"/>
<path transform="translate(441,580)" d="m0 0m-1 1m-1 1m-1 1v3l-9 9v-3z" fill="#118DD9"/>
<path transform="translate(445,561)" d="m0 0m-1 1m-1 1m-2 0 2 1-1 4-6 1v-3z" fill="#108CD8"/>
<path transform="translate(403,551)" d="m0 0 5 5v3l-5-1-1-6z" fill="#0C83CC"/>
<path transform="translate(505,631)" d="m0 0 7 1-2 4h-3l-4-3z" fill="#0B7EC7"/>
<path transform="translate(397,631)" d="m0 0 3 4-4 3-4-2z" fill="#0B7FC8"/>
<path transform="translate(417,623)" d="m0 0 5 5h2l-1 4-4-2-4-5z" fill="#108BD6"/>
<path transform="translate(433,615)" d="m0 0 4 2 1 5-3 3v-2h-3l1-3h2z" fill="#0B7FC8"/>
<path transform="translate(430,605)" d="m0 0 3 1-1 3 5 2 2 3h-3l-6-4z" fill="#0B7FC8"/>
<path transform="translate(532,597)" d="m0 0m-1 1m-5 1 1 2 4-2v5l-4 3-1-4z" fill="#0E86D0"/>
<path transform="translate(447,570)" d="m0 0 4 2-5 5-2-4z" fill="#0C81CA"/>
<path transform="translate(450,564)" d="m0 0 3 1v3l4 2-3 1-3-2v-2h-3l-1 2-1-2 2-2z" fill="#0D85CF"/>
<path transform="translate(471,532)" d="m0 0 4 5-4 2-3-2 2-4z" fill="#0F89D4"/>
<path transform="translate(430,483)" d="m0 0 2 3 1 3h-3l-2-3zm-4 4h2l-2 4-3-2z" fill="#0C82CB"/>
<path transform="translate(447,469)" d="m0 0 2 3-7 6v-4z" fill="#0B7EC7"/>
<path transform="translate(461,665)" d="m0 0 11 2 4 4-6-1-9-4z" fill="#1291DD"/>
<path transform="translate(434,647)" d="m0 0 3 3-2 4-5-2z" fill="#0B7FC7"/>
<path transform="translate(508,619)" d="m0 0 2 4v3h-3l-5-1 3-3v2h2z" fill="#0F89D3"/>
<path transform="translate(455,620)" d="m0 0h3l1 5-4 1-3-3z" fill="#0B7FC8"/>
<path transform="translate(439,615)" d="m0 0 3 1-1 4-3 2-2-4z" fill="#0F89D3"/>
<path transform="translate(512,583)" d="m0 0h1v15l-2-2-1-4 1-5z" fill="#1494DF"/>
<path transform="translate(404,581)" d="m0 0 3 4-2 5h-3l1-2v-2-4z" fill="#108BD6"/>
<path transform="translate(512,569)" d="m0 0h1v11l-2-2zm-1 11m-1 1 2 2-5 3 2-4z" fill="#1391DC"/>
<path transform="translate(498,572)" d="m0 0 2 4-5 4-3-2z" fill="#108CD7"/>
<path transform="translate(378,559)" d="m0 0m-1 1v3l-5 6-1-2h-2v-2l5-3z" fill="#108DD8"/>
<path transform="translate(494,548)" d="m0 0 4 2 2 3-3 2v-2l-5-2z" fill="#0C82CB"/>
<path transform="translate(554,537)" d="m0 0 2 2-1 4h-3v-3zm-4 5m-2 1 3 1-2 2z" fill="#0C81CA"/>
<path transform="translate(447,534)" d="m0 0 3 1-2 4-3 2-2-4z" fill="#0E86D0"/>
<path transform="translate(407,515)" d="m0 0m-1 1m-1 1 1 2-2-1zm-2 2m-1 1m-4 1h4l-1 3-7 1 1-3z" fill="#108DD8"/>
<path transform="translate(428,487)" d="m0 0 5 2 1 3-3 2-5-4z" fill="#0F8AD5"/>
<path transform="translate(396,477)" d="m0 0m-1 1 3 4-5 4-2-3z" fill="#108CD7"/>
</svg>
